<svg xmlns="http://www.w3.org/2000/svg" width="44.833" height="44.833" viewBox="0 0 44.833 44.833">
  <defs>
    <style>
      .cls-1 {
        fill: none;
      }

      .cls-2 {
        fill: #030303;
      }
    </style>
  </defs>
  <g id="Group_2052" data-name="Group 2052" transform="translate(-727.334 -5456.334)">
    <g id="Group_2001" data-name="Group 2001" transform="translate(727.334 5456.334)">
      <path id="Path_1731" data-name="Path 1731" class="cls-1" d="M44.833,44.833H0V0H44.833ZM1.076,43.757H43.757V1.076H1.076Z"/>
      <g id="Group_2000" data-name="Group 2000" transform="translate(2.69 2.152)">
        <path id="Path_1732" data-name="Path 1732" class="cls-2" d="M22.012,32.824a12.94,12.94,0,0,1-10.76-20.085l1.793,1.255a10.558,10.558,0,0,0-1.793,6.1,10.76,10.76,0,1,0,10.76-10.76V7a12.912,12.912,0,0,1,0,25.824Z" transform="translate(4.529 3.401)"/>
        <path id="Path_1733" data-name="Path 1733" class="cls-2" d="M14.412,35.324a12.912,12.912,0,1,1,0-25.824,13.421,13.421,0,0,1,10.76,5.559l-1.793,1.255a10.964,10.964,0,0,0-8.967-4.663,10.76,10.76,0,0,0,0,21.52A10.96,10.96,0,0,0,23.2,28.689l1.793,1.255A13.168,13.168,0,0,1,14.412,35.324Z" transform="translate(-1.5 5.385)"/>
        <path id="Path_1734" data-name="Path 1734" class="cls-2" d="M15.133,27.024V24.872a10.76,10.76,0,1,0-10.76-10.76,10.068,10.068,0,0,0,1.614,5.559L4.193,20.747A12.308,12.308,0,0,1,2.4,14.112a12.912,12.912,0,1,1,25.824,0A13.012,13.012,0,0,1,15.133,27.024Z" transform="translate(-0.786 -1.2)"/>
        <path id="Path_1735" data-name="Path 1735" class="cls-2" d="M16.635,14.587A12.389,12.389,0,0,1,10,17.456v-.179A10.734,10.734,0,0,1,11.793,11,9.343,9.343,0,0,1,16.635,14.587Z" transform="translate(5.243 6.575)"/>
      </g>
    </g>
  </g>
</svg>
